<svg width="746" height="238" viewBox="0 0 746 238" fill="none" xmlns="http://www.w3.org/2000/svg">
<path d="M189.906 1H47.7188C21.9167 1 1 21.9167 1 47.7188V189.906C1 215.708 21.9167 236.625 47.7188 236.625H189.906C215.708 236.625 236.625 215.708 236.625 189.906V47.7188C236.625 21.9167 215.708 1 189.906 1Z" fill="url(#paint0_radial_4011_47)"/>
<path d="M80.4624 76.0397L171.555 25.6064V73.303L80.4624 123.736V76.0397Z" fill="#FFFEF2"/>
<path d="M80.4624 123.736L126.204 98.3242L171.555 123.736L126.595 148.758L80.4624 123.736Z" fill="#FFFEF2"/>
<path d="M126.595 148.757L171.555 123.736V171.824L100.01 211.701L54.6592 186.289L126.595 148.757Z" fill="#FFFEF2"/>
<path d="M80.4624 76.0398V123.736" stroke="black" stroke-opacity="0.08" stroke-width="0.779855"/>
<path d="M126.204 98.3242L171.555 123.736" stroke="black" stroke-opacity="0.1" stroke-width="0.779855"/>
<path d="M171.555 123.736V171.824" stroke="black" stroke-opacity="0.1" stroke-width="0.779855"/>
<path d="M333.566 198.629C326.358 198.629 319.279 197.535 312.329 195.347C305.507 193.03 299.393 189.813 293.988 185.694V162.719H294.953C300.101 170.056 305.893 175.59 312.329 179.323C318.893 183.055 325.907 184.922 333.373 184.922C338.264 184.922 342.768 184.085 346.887 182.412C351.134 180.739 354.481 178.229 356.926 174.882C359.372 171.407 360.595 167.417 360.595 162.912C360.595 158.279 359.179 154.418 356.347 151.329C353.516 148.24 348.946 145.215 342.64 142.255L323.912 133.953C315.032 129.834 308.339 124.815 303.834 118.894C299.458 112.845 297.27 106.023 297.27 98.4291C297.27 91.3501 299.2 84.8503 303.062 78.9297C306.923 73.0091 312.329 68.3755 319.279 65.0291C326.229 61.5539 333.952 59.8164 342.447 59.8164C348.882 59.8164 355.06 60.653 360.981 62.3262C366.901 63.9994 371.857 66.1875 375.847 68.8904V91.0927H374.881C371.149 85.1721 366.451 80.7316 360.788 77.7713C355.253 74.811 349.204 73.3308 342.64 73.3308C334.917 73.3308 328.482 75.2615 323.333 79.1227C318.314 82.984 315.804 88.2611 315.804 94.954C315.804 99.3301 317.091 103.256 319.665 106.731C322.368 110.077 326.744 113.102 332.793 115.805L351.907 124.493C361.174 128.74 368.06 133.631 372.565 139.166C377.198 144.571 379.515 151.329 379.515 159.437C379.515 167.031 377.455 173.853 373.337 179.902C369.347 185.823 363.877 190.456 356.926 193.803C349.976 197.02 342.189 198.629 333.566 198.629ZM439.202 198.629C430.063 198.629 421.89 196.57 414.683 192.451C407.604 188.333 402.069 182.669 398.079 175.462C394.218 168.125 392.287 159.952 392.287 150.942C392.287 141.804 394.282 133.567 398.272 126.23C402.262 118.765 407.925 112.973 415.262 108.855C422.598 104.607 430.836 102.483 439.974 102.483C444.479 102.483 448.919 102.998 453.295 104.028C457.671 105.058 461.597 106.473 465.072 108.275V126.23H463.914C461.468 122.755 458.186 119.988 454.068 117.929C450.078 115.869 445.895 114.84 441.518 114.84C435.34 114.84 429.935 116.255 425.301 119.087C420.668 121.919 417.064 125.909 414.49 131.057C412.044 136.205 410.821 142.062 410.821 148.626C410.821 155.705 412.173 161.883 414.876 167.16C417.707 172.437 421.569 176.491 426.459 179.323C431.479 182.154 437.207 183.57 443.642 183.57C448.018 183.57 452.201 182.927 456.191 181.64C460.31 180.353 464.3 178.486 468.161 176.041L470.478 185.308C466.102 189.684 461.275 193.03 455.998 195.347C450.721 197.535 445.122 198.629 439.202 198.629ZM524.124 198.629C515.372 198.629 507.456 196.57 500.377 192.451C493.427 188.333 487.957 182.605 483.967 175.269C479.977 167.932 477.982 159.63 477.982 150.363C477.982 141.225 479.977 133.052 483.967 125.844C487.957 118.508 493.427 112.78 500.377 108.662C507.456 104.543 515.372 102.483 524.124 102.483C532.748 102.483 540.535 104.543 547.485 108.662C554.564 112.652 560.034 118.315 563.895 125.651C567.885 132.859 569.88 141.096 569.88 150.363C569.88 159.63 567.885 167.932 563.895 175.269C560.034 182.605 554.564 188.333 547.485 192.451C540.535 196.57 532.748 198.629 524.124 198.629ZM524.124 185.694C529.273 185.694 533.842 184.278 537.832 181.447C541.95 178.615 545.104 174.561 547.292 169.284C549.48 163.878 550.574 157.571 550.574 150.363C550.574 143.284 549.48 137.106 547.292 131.829C545.104 126.552 541.95 122.498 537.832 119.666C533.842 116.835 529.273 115.419 524.124 115.419C518.718 115.419 513.956 116.835 509.837 119.666C505.847 122.498 502.758 126.552 500.57 131.829C498.382 137.106 497.288 143.284 497.288 150.363C497.288 157.442 498.382 163.685 500.57 169.09C502.758 174.368 505.847 178.486 509.837 181.447C513.827 184.278 518.59 185.694 524.124 185.694ZM617.489 198.629C612.083 198.629 607.192 197.407 602.816 194.961C598.568 192.387 595.158 188.59 592.583 183.57C590.138 178.551 588.915 172.437 588.915 165.229V127.968C588.915 122.433 588.593 117.993 587.95 114.646C587.435 111.3 586.277 108.275 584.475 105.572V104.8H606.677V165.036C606.677 171.472 608.093 176.363 610.924 179.709C613.885 182.927 617.81 184.536 622.701 184.536C626.563 184.536 630.166 183.506 633.513 181.447C636.988 179.259 639.755 176.17 641.815 172.18C643.874 168.19 644.904 163.62 644.904 158.472V127.968C644.904 122.433 644.582 117.993 643.938 114.646C643.295 111.171 642.072 108.147 640.27 105.572V104.8H662.666V171.407C662.666 177.199 662.923 181.704 663.438 184.922C663.953 188.011 665.047 190.778 666.72 193.223V194.189L645.29 196.892H644.904V182.991H643.938C640.978 187.882 637.181 191.743 632.548 194.575C628.043 197.278 623.023 198.629 617.489 198.629ZM721.167 198.629C716.019 198.629 711.578 197.664 707.845 195.733C704.113 193.803 701.153 190.778 698.965 186.659C696.905 182.541 695.876 177.521 695.876 171.6V117.542H677.148V106.345C683.713 106.216 688.41 105.572 691.242 104.414C694.074 103.127 696.069 100.875 697.227 97.6569C698.385 94.4391 699.093 89.2908 699.351 82.2118H713.637V104.8H739.508V117.542H713.637V171.021C713.637 175.912 714.667 179.516 716.726 181.833C718.786 184.149 722.004 185.308 726.38 185.308C730.756 185.308 734.874 184.343 738.736 182.412L740.666 192.065C737.835 194.253 734.746 195.862 731.399 196.892C728.182 198.05 724.771 198.629 721.167 198.629Z" fill="#1D1D1D"/>
<defs>
<radialGradient id="paint0_radial_4011_47" cx="0" cy="0" r="1" gradientUnits="userSpaceOnUse" gradientTransform="translate(118.812 120.844) rotate(90) scale(132.031)">
<stop stop-color="#2A2A2A"/>
<stop offset="0.65" stop-color="#202020"/>
<stop offset="1" stop-color="#1D1D1D"/>
</radialGradient>
</defs>
</svg>
